<svg width="2397" height="2538" viewBox="0 0 2397 2538" fill="none" xmlns="http://www.w3.org/2000/svg">
<path d="M40 42C40 40.8954 40.8954 40 42 40H2355C2356.1 40 2357 40.8954 2357 42V2496C2357 2497.1 2356.1 2498 2355 2498H42C40.8955 2498 40 2497.1 40 2496V42Z" fill="white"/>
<path d="M42 41H2355V39H42V41ZM2356 42V2496H2358V42H2356ZM2355 2497H42V2499H2355V2497ZM41 2496V42H39V2496H41ZM42 2497C41.4477 2497 41 2496.55 41 2496H39C39 2497.66 40.3432 2499 42 2499V2497ZM2356 2496C2356 2496.55 2355.55 2497 2355 2497V2499C2356.66 2499 2358 2497.66 2358 2496H2356ZM2355 41C2355.55 41 2356 41.4477 2356 42H2358C2358 40.3431 2356.66 39 2355 39V41ZM42 39C40.3432 39 39 40.3431 39 42H41C41 41.4477 41.4477 41 42 41V39Z" fill="black" fill-opacity="0.1"/>
<ellipse cx="646.5" cy="1057.2" rx="240.5" ry="265" fill="#0D99FF"/>
<ellipse cx="647.425" cy="1059.36" rx="204.425" ry="219.633" fill="white"/>
<ellipse cx="1238.5" cy="1057.2" rx="240.5" ry="265" fill="#1E1E1E"/>
<ellipse cx="1239.43" cy="1059.36" rx="204.425" ry="219.633" fill="white"/>
<ellipse cx="1832" cy="1059.2" rx="242" ry="265" fill="#FF0004"/>
<ellipse cx="1832.93" cy="1061.36" rx="205.7" ry="219.633" fill="white"/>
<ellipse cx="950.5" cy="1340.2" rx="240.5" ry="265" fill="#FFCD29"/>
<ellipse cx="951.425" cy="1342.36" rx="204.425" ry="219.633" fill="white"/>
<ellipse cx="1542.5" cy="1342.2" rx="240.5" ry="265" fill="#14AE5C"/>
<ellipse cx="1543.43" cy="1344.36" rx="204.425" ry="219.633" fill="white"/>
<path d="M765.8 608.2C790.333 594.333 812.867 578.467 833.4 560.6C853.933 542.467 870.2 523.8 882.2 504.6C894.467 485.4 900.6 467.267 900.6 450.2C900.6 435.533 896.2 423.933 887.4 415.4C878.6 406.6 866.067 402.2 849.8 402.2C834.6 402.2 821.533 405.267 810.6 411.4C799.667 417.267 789.533 424.6 780.2 433.4L767.4 415.4C776.733 404.467 790.067 394.6 807.4 385.8C824.733 376.733 843.267 372.2 863 372.2C881.667 372.2 897.4 375.667 910.2 382.6C923 389.267 932.467 398.067 938.6 409C944.733 419.933 947.8 431.933 947.8 445C947.8 471.4 935.133 498.6 909.8 526.6C884.467 554.333 852.733 579.267 814.6 601.4L938.6 592.2L952.6 557.8L973 561.8L962.6 625H771.8L765.8 608.2Z" fill="#14AE5C"/>
<path d="M1103.66 628.6C1069.53 628.6 1043.93 616.867 1026.86 593.4C1010.06 569.667 1001.66 539.133 1001.66 501.8C1001.66 475.667 1006.46 452.867 1016.06 433.4C1025.66 413.667 1038.73 398.6 1055.26 388.2C1071.8 377.8 1089.93 372.6 1109.66 372.6C1144.33 372.6 1169.66 383.8 1185.66 406.2C1201.66 428.333 1209.66 458.733 1209.66 497.4C1209.66 523.267 1205 546.2 1195.66 566.2C1186.6 585.933 1173.93 601.267 1157.66 612.2C1141.66 623.133 1123.66 628.6 1103.66 628.6ZM1105.26 608.2C1145 608.2 1164.86 572.6 1164.86 501.4C1164.86 466.733 1160.33 440.067 1151.26 421.4C1142.46 402.733 1127.53 393.4 1106.46 393.4C1085.93 393.4 1070.73 402.333 1060.86 420.2C1051 437.8 1046.06 463.133 1046.06 496.2C1046.06 530.067 1050.73 557.267 1060.06 577.8C1069.66 598.067 1084.73 608.2 1105.26 608.2Z" fill="#FFCD29"/>
<path d="M1243.49 608.2C1268.03 594.333 1290.56 578.467 1311.09 560.6C1331.63 542.467 1347.89 523.8 1359.89 504.6C1372.16 485.4 1378.29 467.267 1378.29 450.2C1378.29 435.533 1373.89 423.933 1365.09 415.4C1356.29 406.6 1343.76 402.2 1327.49 402.2C1312.29 402.2 1299.23 405.267 1288.29 411.4C1277.36 417.267 1267.23 424.6 1257.89 433.4L1245.09 415.4C1254.43 404.467 1267.76 394.6 1285.09 385.8C1302.43 376.733 1320.96 372.2 1340.69 372.2C1359.36 372.2 1375.09 375.667 1387.89 382.6C1400.69 389.267 1410.16 398.067 1416.29 409C1422.43 419.933 1425.49 431.933 1425.49 445C1425.49 471.4 1412.83 498.6 1387.49 526.6C1362.16 554.333 1330.43 579.267 1292.29 601.4L1416.29 592.2L1430.29 557.8L1450.69 561.8L1440.29 625H1249.49L1243.49 608.2Z" fill="#F24822"/>
<path d="M1612.56 625H1479.76L1469.36 607C1485.09 577.133 1504.42 537.667 1527.36 488.6C1550.29 439.267 1570.82 394.067 1588.96 353H1599.36L1631.36 370.2L1523.36 578.2L1507.36 602.6L1612.56 597L1614.16 519L1648.16 516.2V595L1704.56 592.2V625H1648.16V689.4H1612.56V625Z" fill="#0D99FF"/>
<circle cx="764" cy="1519" r="88" fill="#14AE5C"/>
<circle cx="575" cy="1287" r="88" fill="#14AE5C"/>
<circle cx="342.21" cy="1586.39" r="88" transform="rotate(-60 342.21 1586.39)" fill="#1E1E1E"/>
<path d="M530.179 1836.94L498.938 1918.92C497.164 1923.02 491.704 1923.81 488.837 1920.39L341.029 1744.24C339.623 1742.57 339.24 1740.26 340.029 1738.22L373.248 1650.24C373.99 1648.32 375.665 1646.92 377.685 1646.52L470.097 1629.08C472.242 1628.66 474.447 1629.44 475.853 1631.11L623.661 1807.26C626.528 1810.68 624.797 1815.92 620.459 1816.96L534.29 1833.49C532.453 1833.92 530.93 1835.2 530.179 1836.94Z" fill="#1E1E1E"/>
<rect x="1187.19" y="2042.26" width="431.827" height="114.799" rx="45.9196" transform="rotate(175 1187.19 2042.26)" fill="#1E1E1E"/>
<rect x="450.24" y="1880.74" width="181.779" height="368" rx="6" transform="rotate(-40 450.24 1880.74)" fill="#1E1E1E"/>
<rect x="1025.21" y="2390.66" width="442.171" height="114.799" rx="45.9196" transform="rotate(-145 1025.21 2390.66)" fill="#1E1E1E"/>
<rect x="619.661" y="1366.75" width="343.663" height="107.972" rx="43.1887" transform="rotate(100 619.661 1366.75)" fill="#1E1E1E"/>
<rect x="777.604" y="1526.93" width="343.663" height="107.972" rx="43.1887" transform="rotate(110 777.604 1526.93)" fill="#1E1E1E"/>
</svg>
